<?xml version="1.0" standalone="no"?>
<!DOCTYPE svg PUBLIC "-//W3C//DTD SVG 20010904//EN"
 "http://www.w3.org/TR/2001/REC-SVG-20010904/DTD/svg10.dtd">
<svg version="1.0" xmlns="http://www.w3.org/2000/svg"
 width="512.000000pt" height="512.000000pt" viewBox="0 0 512.000000 512.000000"
 preserveAspectRatio="xMidYMid meet">

<g transform="translate(0.000000,512.000000) scale(0.100000,-0.100000)"
fill="#000000" stroke="none">
<path d="M2375 4794 c-108 -11 -262 -38 -367 -65 -756 -187 -1380 -789 -1596
-1539 -68 -235 -87 -373 -86 -635 0 -249 16 -372 78 -598 206 -746 807 -1347
1553 -1553 224 -61 349 -77 598 -78 242 -1 343 11 559 65 621 155 1161 592
1453 1174 90 178 174 447 210 670 24 153 24 486 0 645 -152 989 -906 1744
-1892 1896 -97 15 -428 26 -510 18z m611 -1060 c43 -21 133 -153 215 -315 305
-610 262 -1348 -113 -1914 -77 -117 -95 -130 -180 -130 -63 0 -69 2 -103 35
-41 40 -60 93 -51 142 3 18 31 72 61 118 358 550 359 1236 1 1779 -59 90 -66
105 -66 142 0 47 36 114 73 138 39 25 115 28 163 5z m-529 -373 c50 -23 92
-78 162 -211 99 -189 142 -368 142 -590 0 -220 -44 -402 -142 -589 -72 -138
-112 -189 -166 -213 -83 -37 -176 2 -208 86 -24 64 -15 103 45 198 205 319
205 718 0 1038 -64 99 -72 144 -38 210 17 33 35 51 68 68 54 27 82 27 137 3z
m-511 -377 c40 -19 84 -78 124 -167 70 -156 70 -358 0 -514 -64 -141 -120
-189 -210 -181 -126 12 -184 142 -112 255 40 64 54 112 54 183 0 71 -14 119
-54 182 -60 96 -27 214 72 251 30 11 93 7 126 -9z"/>
</g>
</svg>
